<svg width="120" height="55" viewBox="0 0 120 55" fill="none" xmlns="http://www.w3.org/2000/svg">
<path d="M7.49505 29.4196C7.49505 29.6833 7.50705 30.0191 7.53103 30.4268C7.55501 30.8105 7.60297 31.1822 7.67491 31.5419C7.74686 31.9016 7.86676 32.2134 8.03463 32.4772C8.2025 32.7409 8.43032 32.8728 8.71809 32.8728C9.05383 32.8728 9.42554 32.729 9.83322 32.4412C10.2649 32.1534 10.8764 31.8057 11.6678 31.398C12.0035 31.2301 12.3273 31.1462 12.639 31.1462C13.0467 31.1462 13.4064 31.2661 13.7182 31.5059C14.0539 31.7457 14.3297 32.0455 14.5455 32.4052C14.7853 32.7649 14.9652 33.1606 15.0851 33.5923C15.205 34.0239 15.2649 34.4436 15.2649 34.8513C15.2649 36.3861 14.6894 37.6331 13.5383 38.5923C12.3872 39.5516 10.7925 40.0312 8.75406 40.0312C7.55501 40.0312 6.46387 39.9952 5.48064 39.9233C4.52139 39.8274 3.69404 39.5516 2.99859 39.0959C2.32712 38.6403 1.79953 37.9449 1.41584 37.0096C1.05612 36.0743 0.87626 34.7674 0.87626 33.0887V20.8943C0.87626 20.2468 0.912232 19.5513 0.984176 18.8079C1.0801 18.0405 1.25996 17.3331 1.52375 16.6856C1.78754 16.0381 2.17124 15.4985 2.67485 15.0668C3.17845 14.6352 3.84992 14.4194 4.68926 14.4194C5.38471 14.4194 5.92429 14.5752 6.30799 14.887C6.69169 15.1748 6.97946 15.5585 7.17131 16.0381C7.38714 16.4937 7.51904 17.0093 7.567 17.5849C7.61496 18.1364 7.63894 18.664 7.63894 19.1676C7.63894 20.1508 7.62695 21.0501 7.60297 21.8655C7.60297 22.6809 7.59098 23.4842 7.567 24.2756C7.54302 25.067 7.51904 25.8823 7.49505 26.7217C7.49505 27.537 7.49505 28.4363 7.49505 29.4196ZM39.0987 26.9735C39.0987 28.7721 38.9668 30.4867 38.703 32.1174C38.4392 33.7482 37.9237 35.175 37.1563 36.3981C36.4128 37.6211 35.3697 38.5923 34.0267 39.3118C32.7078 40.0312 30.9691 40.3909 28.8108 40.3909C26.5566 40.3909 24.758 40.0672 23.4151 39.4197C22.0721 38.7482 21.0409 37.8369 20.3215 36.6858C19.626 35.5347 19.1704 34.1678 18.9546 32.5851C18.7387 31.0023 18.6308 29.2877 18.6308 27.4411C18.6308 26.4339 18.6668 25.4147 18.7387 24.3835C18.8347 23.3523 19.0025 22.3571 19.2423 21.3979C19.5061 20.4146 19.8659 19.4914 20.3215 18.628C20.8011 17.7647 21.4246 17.0093 22.192 16.3618C22.9594 15.7143 23.9067 15.2107 25.0338 14.851C26.1609 14.4673 27.5038 14.2755 29.0626 14.2755C31.173 14.2755 32.8756 14.6232 34.1706 15.3186C35.4896 15.9901 36.5088 16.9134 37.2282 18.0885C37.9716 19.2396 38.4632 20.5825 38.703 22.1173C38.9668 23.6521 39.0987 25.2708 39.0987 26.9735ZM28.8108 34.8153C29.5542 34.8153 30.1538 34.5995 30.6094 34.1678C31.065 33.7362 31.4248 33.1606 31.6886 32.4412C31.9523 31.6978 32.1322 30.8344 32.2281 29.8512C32.3241 28.844 32.372 27.7768 32.372 26.6497C32.372 25.5466 32.336 24.5754 32.2641 23.736C32.1922 22.8967 32.0363 22.1892 31.7965 21.6137C31.5806 21.0381 31.2569 20.6065 30.8252 20.3187C30.4176 20.0309 29.878 19.8871 29.2065 19.8871C28.4151 19.8871 27.7676 20.0549 27.264 20.3907C26.7604 20.7264 26.3767 21.218 26.1129 21.8655C25.8492 22.513 25.6693 23.3044 25.5734 24.2396C25.4774 25.1509 25.4295 26.1821 25.4295 27.3332C25.4295 28.3644 25.4655 29.3356 25.5374 30.2469C25.6093 31.1342 25.7652 31.9256 26.005 32.621C26.2448 33.2925 26.5806 33.8321 27.0122 34.2398C27.4679 34.6235 28.0674 34.8153 28.8108 34.8153Z" fill="white"/>
<rect x="49.0059" width="70.9811" height="54.9906" rx="11.9906" fill="#00B2FF"/>
<path d="M72.0397 33.3047C72.5433 33.3047 72.9749 33.2328 73.3346 33.0889C73.6944 32.921 73.9821 32.7172 74.198 32.4774C74.4138 32.2376 74.5697 31.9858 74.6656 31.722C74.7615 31.4342 74.8095 31.1824 74.8095 30.9666C74.8095 30.3671 74.4617 30.0673 73.7663 30.0673C73.5265 30.0673 73.2627 30.0793 72.9749 30.1033C72.6871 30.1033 72.3034 30.1153 71.8238 30.1392C70.9845 30.1872 70.4329 29.9953 70.1691 29.5637C69.9293 29.132 69.8094 28.5325 69.8094 27.7651C69.8094 27.1176 69.9413 26.602 70.2051 26.2183C70.4929 25.8346 70.8646 25.5468 71.3202 25.355C71.7998 25.1392 72.3514 25.0073 72.9749 24.9593C73.5984 24.9113 74.2459 24.8874 74.9174 24.8874C75.6848 24.8874 76.4282 24.9593 77.1476 25.1032C77.8911 25.2231 78.5625 25.4869 79.162 25.8946C79.7616 26.2783 80.2412 26.8538 80.6009 27.6212C80.9606 28.3646 81.1405 29.3718 81.1405 30.6428C81.1405 32.0337 80.9007 33.3167 80.4211 34.4918C79.9414 35.6669 79.27 36.6741 78.4066 37.5134C77.5673 38.3528 76.5721 39.0123 75.421 39.4919C74.2699 39.9475 73.0109 40.1753 71.644 40.1753C70.2531 40.1753 68.9461 39.9595 67.723 39.5279C66.5 39.0722 65.4328 38.3528 64.5216 37.3695C63.6103 36.3623 62.8908 35.0674 62.3633 33.4846C61.8357 31.8779 61.5719 29.9354 61.5719 27.6572C61.5719 23.0768 62.4712 19.6954 64.2698 17.5132C66.0923 15.3069 68.7422 14.2038 72.2195 14.2038C74.9534 14.2038 77.0517 14.6834 78.5146 15.6426C79.9774 16.5779 80.7088 18.0647 80.7088 20.1031C80.7088 20.9664 80.6009 21.6619 80.3851 22.1895C80.1693 22.6931 79.8935 23.0768 79.5577 23.3406C79.246 23.6044 78.8863 23.7842 78.4786 23.8802C78.0709 23.9521 77.6872 23.9881 77.3275 23.9881C76.5841 23.9881 75.9486 23.8322 75.421 23.5204C74.8934 23.2087 74.4737 22.6571 74.162 21.8657C73.9941 21.4101 73.6944 21.0504 73.2627 20.7866C72.855 20.5228 72.3754 20.3909 71.8238 20.3909C71.1524 20.3909 70.6008 20.6187 70.1691 21.0744C69.7375 21.53 69.3897 22.1175 69.1259 22.837C68.8622 23.5324 68.6703 24.3118 68.5504 25.1751C68.4545 26.0145 68.4065 26.8298 68.4065 27.6212C68.4065 28.3167 68.4785 29.0121 68.6223 29.7076C68.7662 30.379 68.9821 30.9906 69.2698 31.5421C69.5816 32.0697 69.9653 32.5014 70.4209 32.8371C70.8766 33.1489 71.4161 33.3047 72.0397 33.3047ZM95.4977 40.3912C93.9869 40.3912 92.584 40.1514 91.289 39.6717C90.018 39.1681 88.9029 38.4007 87.9436 37.3695C86.9844 36.3144 86.229 34.9954 85.6774 33.4127C85.1498 31.8059 84.886 29.9114 84.886 27.7291C84.886 25.4269 85.1498 23.4365 85.6774 21.7578C86.229 20.0791 86.9844 18.7002 87.9436 17.6211C88.9269 16.5419 90.09 15.7386 91.4329 15.211C92.7998 14.6834 94.3106 14.4196 95.9653 14.4196C99.3707 14.4196 101.937 15.4748 103.663 17.5851C105.39 19.6954 106.253 22.813 106.253 26.9378C106.253 31.1824 105.33 34.4918 103.483 36.8659C101.661 39.2161 98.9989 40.3912 95.4977 40.3912ZM91.7926 27.7291C91.7926 28.3766 91.8646 29.108 92.0084 29.9234C92.1523 30.7148 92.3802 31.4702 92.6919 32.1896C93.0276 32.8851 93.4473 33.4726 93.9509 33.9522C94.4545 34.4319 95.078 34.6717 95.8214 34.6717C96.6128 34.6717 97.2363 34.4438 97.692 33.9882C98.1476 33.5326 98.4953 32.957 98.7352 32.2616C98.9989 31.5661 99.1668 30.7987 99.2388 29.9594C99.3107 29.12 99.3467 28.3287 99.3467 27.5852C99.3467 26.8178 99.2627 26.0145 99.0949 25.1751C98.951 24.3118 98.7112 23.5085 98.3754 22.765C98.0637 22.0216 97.668 21.4101 97.1884 20.9305C96.7087 20.4509 96.1572 20.211 95.5337 20.211C95.078 20.211 94.6224 20.4029 94.1667 20.7866C93.7351 21.1463 93.3394 21.6619 92.9797 22.3334C92.62 22.9809 92.3322 23.7722 92.1164 24.7075C91.9005 25.6188 91.7926 26.626 91.7926 27.7291Z" fill="white"/>
</svg>
